<svg id="visual" viewBox="0 0 900 50" width="900" height="50" xmlns="http://www.w3.org/2000/svg" xmlns:xlink="http://www.w3.org/1999/xlink" version="1.1"><rect x="0" y="0" width="900" height="50" fill="#286a8c"></rect><path d="M0 25L7.2 23.3C14.3 21.7 28.7 18.3 43 18.7C57.3 19 71.7 23 86 25.3C100.3 27.7 114.7 28.3 128.8 27.8C143 27.3 157 25.7 171.2 25.3C185.3 25 199.7 26 214 26.2C228.3 26.3 242.7 25.7 257 25C271.3 24.3 285.7 23.7 300 24C314.3 24.3 328.7 25.7 343 24.3C357.3 23 371.7 19 386 17.5C400.3 16 414.7 17 428.8 19.2C443 21.3 457 24.7 471.2 26.7C485.3 28.7 499.7 29.3 514 27.7C528.3 26 542.7 22 557 19.2C571.3 16.3 585.7 14.7 600 16.5C614.3 18.3 628.7 23.7 643 24C657.3 24.3 671.7 19.7 686 19.3C700.3 19 714.7 23 728.8 24.8C743 26.7 757 26.3 771.2 26.5C785.3 26.7 799.7 27.3 814 27.3C828.3 27.3 842.7 26.7 857 24.8C871.3 23 885.7 20 892.8 18.5L900 17L900 0L892.8 0C885.7 0 871.3 0 857 0C842.7 0 828.3 0 814 0C799.7 0 785.3 0 771.2 0C757 0 743 0 728.8 0C714.7 0 700.3 0 686 0C671.7 0 657.3 0 643 0C628.7 0 614.3 0 600 0C585.7 0 571.3 0 557 0C542.7 0 528.3 0 514 0C499.7 0 485.3 0 471.2 0C457 0 443 0 428.8 0C414.7 0 400.3 0 386 0C371.7 0 357.3 0 343 0C328.7 0 314.3 0 300 0C285.7 0 271.3 0 257 0C242.7 0 228.3 0 214 0C199.7 0 185.3 0 171.2 0C157 0 143 0 128.8 0C114.7 0 100.3 0 86 0C71.7 0 57.3 0 43 0C28.7 0 14.3 0 7.2 0L0 0Z" fill="#19255a" stroke-linecap="round" stroke-linejoin="miter"></path></svg>