<svg id="visual" viewBox="0 0 900 100" width="900" height="100" xmlns="http://www.w3.org/2000/svg" xmlns:xlink="http://www.w3.org/1999/xlink" version="1.1"><path d="M0 17L45 17L45 19L90 19L90 29L135 29L135 30L180 30L180 15L225 15L225 18L270 18L270 18L315 18L315 22L360 22L360 26L405 26L405 34L450 34L450 35L495 35L495 31L540 31L540 25L585 25L585 25L630 25L630 20L675 20L675 21L720 21L720 32L765 32L765 20L810 20L810 21L855 21L855 22L900 22L900 26L900 101L900 101L855 101L855 101L810 101L810 101L765 101L765 101L720 101L720 101L675 101L675 101L630 101L630 101L585 101L585 101L540 101L540 101L495 101L495 101L450 101L450 101L405 101L405 101L360 101L360 101L315 101L315 101L270 101L270 101L225 101L225 101L180 101L180 101L135 101L135 101L90 101L90 101L45 101L45 101L0 101Z" fill="#752da8"></path><path d="M0 39L45 39L45 35L90 35L90 49L135 49L135 39L180 39L180 50L225 50L225 44L270 44L270 34L315 34L315 41L360 41L360 52L405 52L405 37L450 37L450 49L495 49L495 40L540 40L540 48L585 48L585 35L630 35L630 47L675 47L675 44L720 44L720 40L765 40L765 46L810 46L810 39L855 39L855 50L900 50L900 35L900 101L900 101L855 101L855 101L810 101L810 101L765 101L765 101L720 101L720 101L675 101L675 101L630 101L630 101L585 101L585 101L540 101L540 101L495 101L495 101L450 101L450 101L405 101L405 101L360 101L360 101L315 101L315 101L270 101L270 101L225 101L225 101L180 101L180 101L135 101L135 101L90 101L90 101L45 101L45 101L0 101Z" fill="#5c158e"></path><path d="M0 60L45 60L45 61L90 61L90 66L135 66L135 68L180 68L180 64L225 64L225 58L270 58L270 58L315 58L315 60L360 60L360 58L405 58L405 54L450 54L450 65L495 65L495 53L540 53L540 56L585 56L585 69L630 69L630 64L675 64L675 53L720 53L720 66L765 66L765 58L810 58L810 65L855 65L855 68L900 68L900 68L900 101L900 101L855 101L855 101L810 101L810 101L765 101L765 101L720 101L720 101L675 101L675 101L630 101L630 101L585 101L585 101L540 101L540 101L495 101L495 101L450 101L450 101L405 101L405 101L360 101L360 101L315 101L315 101L270 101L270 101L225 101L225 101L180 101L180 101L135 101L135 101L90 101L90 101L45 101L45 101L0 101Z" fill="#470976"></path><path d="M0 73L45 73L45 81L90 81L90 86L135 86L135 85L180 85L180 77L225 77L225 81L270 81L270 82L315 82L315 73L360 73L360 76L405 76L405 78L450 78L450 81L495 81L495 75L540 75L540 73L585 73L585 72L630 72L630 81L675 81L675 75L720 75L720 73L765 73L765 86L810 86L810 76L855 76L855 75L900 75L900 83L900 101L900 101L855 101L855 101L810 101L810 101L765 101L765 101L720 101L720 101L675 101L675 101L630 101L630 101L585 101L585 101L540 101L540 101L495 101L495 101L450 101L450 101L405 101L405 101L360 101L360 101L315 101L315 101L270 101L270 101L225 101L225 101L180 101L180 101L135 101L135 101L90 101L90 101L45 101L45 101L0 101Z" fill="#370c5f"></path></svg>