<svg id="visual" viewBox="0 0 900 75" width="900" height="75" xmlns="http://www.w3.org/2000/svg" xmlns:xlink="http://www.w3.org/1999/xlink" version="1.1"><path d="M0 31L64 26L129 21L193 26L257 27L321 26L386 26L450 30L514 20L579 23L643 31L707 26L771 17L836 19L900 21L900 76L836 76L771 76L707 76L643 76L579 76L514 76L450 76L386 76L321 76L257 76L193 76L129 76L64 76L0 76Z" fill="#376182"></path><path d="M0 31L64 37L129 32L193 33L257 38L321 29L386 27L450 32L514 32L579 28L643 37L707 31L771 31L836 39L900 27L900 76L836 76L771 76L707 76L643 76L579 76L514 76L450 76L386 76L321 76L257 76L193 76L129 76L64 76L0 76Z" fill="#274f6d"></path><path d="M0 43L64 37L129 43L193 45L257 43L321 43L386 39L450 40L514 41L579 47L643 42L707 46L771 45L836 38L900 47L900 76L836 76L771 76L707 76L643 76L579 76L514 76L450 76L386 76L321 76L257 76L193 76L129 76L64 76L0 76Z" fill="#173d59"></path><path d="M0 48L64 48L129 53L193 51L257 51L321 50L386 55L450 54L514 56L579 48L643 57L707 48L771 57L836 54L900 56L900 76L836 76L771 76L707 76L643 76L579 76L514 76L450 76L386 76L321 76L257 76L193 76L129 76L64 76L0 76Z" fill="#16354d"></path><path d="M0 64L64 60L129 64L193 64L257 63L321 59L386 60L450 63L514 60L579 63L643 59L707 61L771 62L836 62L900 62L900 76L836 76L771 76L707 76L643 76L579 76L514 76L450 76L386 76L321 76L257 76L193 76L129 76L64 76L0 76Z" fill="#142d41"></path></svg>