<svg id="visual" viewBox="0 0 900 150" width="900" height="150" xmlns="http://www.w3.org/2000/svg" xmlns:xlink="http://www.w3.org/1999/xlink" version="1.1"><path d="M0 36L12.5 36.7C25 37.3 50 38.7 75 41.3C100 44 125 48 150 53.2C175 58.3 200 64.7 225 67.8C250 71 275 71 300 67.3C325 63.7 350 56.3 375 54.3C400 52.3 425 55.7 450 58.2C475 60.7 500 62.3 525 62.5C550 62.7 575 61.3 600 59.5C625 57.7 650 55.3 675 52.8C700 50.3 725 47.7 750 48.8C775 50 800 55 825 53.3C850 51.7 875 43.3 887.5 39.2L900 35L900 151L887.5 151C875 151 850 151 825 151C800 151 775 151 750 151C725 151 700 151 675 151C650 151 625 151 600 151C575 151 550 151 525 151C500 151 475 151 450 151C425 151 400 151 375 151C350 151 325 151 300 151C275 151 250 151 225 151C200 151 175 151 150 151C125 151 100 151 75 151C50 151 25 151 12.5 151L0 151Z" fill="#4e4e54"></path><path d="M0 51L12.5 56C25 61 50 71 75 75C100 79 125 77 150 73.5C175 70 200 65 225 64.5C250 64 275 68 300 71.7C325 75.3 350 78.7 375 78C400 77.3 425 72.7 450 69.7C475 66.7 500 65.3 525 67.2C550 69 575 74 600 75.8C625 77.7 650 76.3 675 76.8C700 77.3 725 79.7 750 77.5C775 75.3 800 68.7 825 68C850 67.3 875 72.7 887.5 75.3L900 78L900 151L887.5 151C875 151 850 151 825 151C800 151 775 151 750 151C725 151 700 151 675 151C650 151 625 151 600 151C575 151 550 151 525 151C500 151 475 151 450 151C425 151 400 151 375 151C350 151 325 151 300 151C275 151 250 151 225 151C200 151 175 151 150 151C125 151 100 151 75 151C50 151 25 151 12.5 151L0 151Z" fill="#484855"></path><path d="M0 84L12.5 83.5C25 83 50 82 75 81.2C100 80.3 125 79.7 150 79.3C175 79 200 79 225 79C250 79 275 79 300 76C325 73 350 67 375 67.3C400 67.7 425 74.3 450 75.3C475 76.3 500 71.7 525 70.2C550 68.7 575 70.3 600 74C625 77.7 650 83.3 675 82.5C700 81.7 725 74.3 750 74.2C775 74 800 81 825 85C850 89 875 90 887.5 90.5L900 91L900 151L887.5 151C875 151 850 151 825 151C800 151 775 151 750 151C725 151 700 151 675 151C650 151 625 151 600 151C575 151 550 151 525 151C500 151 475 151 450 151C425 151 400 151 375 151C350 151 325 151 300 151C275 151 250 151 225 151C200 151 175 151 150 151C125 151 100 151 75 151C50 151 25 151 12.5 151L0 151Z" fill="#414256"></path><path d="M0 104L12.5 103.3C25 102.7 50 101.3 75 97.8C100 94.3 125 88.7 150 88.2C175 87.7 200 92.3 225 95C250 97.7 275 98.3 300 98.8C325 99.3 350 99.7 375 97C400 94.3 425 88.7 450 88.2C475 87.7 500 92.3 525 91.7C550 91 575 85 600 84.8C625 84.7 650 90.3 675 90.7C700 91 725 86 750 84.3C775 82.7 800 84.3 825 87.7C850 91 875 96 887.5 98.5L900 101L900 151L887.5 151C875 151 850 151 825 151C800 151 775 151 750 151C725 151 700 151 675 151C650 151 625 151 600 151C575 151 550 151 525 151C500 151 475 151 450 151C425 151 400 151 375 151C350 151 325 151 300 151C275 151 250 151 225 151C200 151 175 151 150 151C125 151 100 151 75 151C50 151 25 151 12.5 151L0 151Z" fill="#3b3c58"></path><path d="M0 102L12.5 99.7C25 97.3 50 92.7 75 91.3C100 90 125 92 150 95C175 98 200 102 225 102.5C250 103 275 100 300 97C325 94 350 91 375 91.2C400 91.3 425 94.7 450 98C475 101.3 500 104.7 525 104.2C550 103.7 575 99.3 600 96C625 92.7 650 90.3 675 90.8C700 91.3 725 94.7 750 96.2C775 97.7 800 97.3 825 97C850 96.7 875 96.3 887.5 96.2L900 96L900 151L887.5 151C875 151 850 151 825 151C800 151 775 151 750 151C725 151 700 151 675 151C650 151 625 151 600 151C575 151 550 151 525 151C500 151 475 151 450 151C425 151 400 151 375 151C350 151 325 151 300 151C275 151 250 151 225 151C200 151 175 151 150 151C125 151 100 151 75 151C50 151 25 151 12.5 151L0 151Z" fill="#333658"></path><path d="M0 110L12.5 111C25 112 50 114 75 115C100 116 125 116 150 113.8C175 111.7 200 107.3 225 106.7C250 106 275 109 300 110.5C325 112 350 112 375 113C400 114 425 116 450 117C475 118 500 118 525 118.7C550 119.3 575 120.7 600 121.3C625 122 650 122 675 122.2C700 122.3 725 122.7 750 119.7C775 116.7 800 110.3 825 108.2C850 106 875 108 887.5 109L900 110L900 151L887.5 151C875 151 850 151 825 151C800 151 775 151 750 151C725 151 700 151 675 151C650 151 625 151 600 151C575 151 550 151 525 151C500 151 475 151 450 151C425 151 400 151 375 151C350 151 325 151 300 151C275 151 250 151 225 151C200 151 175 151 150 151C125 151 100 151 75 151C50 151 25 151 12.5 151L0 151Z" fill="#2c3059"></path><path d="M0 119L12.5 118.7C25 118.3 50 117.7 75 119C100 120.3 125 123.7 150 124.3C175 125 200 123 225 123.3C250 123.7 275 126.3 300 126.2C325 126 350 123 375 123.3C400 123.7 425 127.3 450 127.2C475 127 500 123 525 121.5C550 120 575 121 600 121.5C625 122 650 122 675 121C700 120 725 118 750 117.2C775 116.3 800 116.7 825 119C850 121.3 875 125.7 887.5 127.8L900 130L900 151L887.5 151C875 151 850 151 825 151C800 151 775 151 750 151C725 151 700 151 675 151C650 151 625 151 600 151C575 151 550 151 525 151C500 151 475 151 450 151C425 151 400 151 375 151C350 151 325 151 300 151C275 151 250 151 225 151C200 151 175 151 150 151C125 151 100 151 75 151C50 151 25 151 12.5 151L0 151Z" fill="#232b5a"></path><path d="M0 130L12.5 131.8C25 133.7 50 137.3 75 137.2C100 137 125 133 150 131.5C175 130 200 131 225 132.2C250 133.3 275 134.7 300 134C325 133.3 350 130.7 375 130.7C400 130.7 425 133.3 450 134.5C475 135.7 500 135.3 525 135C550 134.7 575 134.3 600 134C625 133.7 650 133.3 675 132.2C700 131 725 129 750 130.3C775 131.7 800 136.3 825 138C850 139.7 875 138.3 887.5 137.7L900 137L900 151L887.5 151C875 151 850 151 825 151C800 151 775 151 750 151C725 151 700 151 675 151C650 151 625 151 600 151C575 151 550 151 525 151C500 151 475 151 450 151C425 151 400 151 375 151C350 151 325 151 300 151C275 151 250 151 225 151C200 151 175 151 150 151C125 151 100 151 75 151C50 151 25 151 12.5 151L0 151Z" fill="#19255a"></path></svg>