<svg xmlns="http://www.w3.org/2000/svg" xmlns:xlink="http://www.w3.org/1999/xlink" width="500" zoomAndPan="magnify" viewBox="0 0 375 74.999997" height="100" preserveAspectRatio="xMidYMid meet" version="1.0"><defs><g/><clipPath id="cd38728c12"><path d="M 8 6 L 78 6 L 78 69 L 8 69 Z M 8 6 " clip-rule="nonzero"/></clipPath><clipPath id="83115a2f42"><path d="M 7.5 9.5625 L 76.496094 6.144531 L 79.453125 65.796875 L 10.457031 69.214844 Z M 7.5 9.5625 " clip-rule="nonzero"/></clipPath><clipPath id="4c86d5128c"><path d="M 77.964844 35.789062 L 62.1875 66.292969 L 27.6875 68.003906 L 8.96875 39.210938 L 24.75 8.707031 L 59.246094 6.996094 L 77.964844 35.789062 " clip-rule="nonzero"/></clipPath><clipPath id="cdd9cc600c"><path d="M 21.132812 32 L 44 32 L 44 52.480469 L 21.132812 52.480469 Z M 21.132812 32 " clip-rule="nonzero"/></clipPath><clipPath id="1441e881ab"><path d="M 43 22.480469 L 66.132812 22.480469 L 66.132812 43 L 43 43 Z M 43 22.480469 " clip-rule="nonzero"/></clipPath></defs><g clip-path="url(#cd38728c12)"><g clip-path="url(#83115a2f42)"><g clip-path="url(#4c86d5128c)"><path fill="#0a1357" d="M 7.5 9.5625 L 76.496094 6.144531 L 79.453125 65.796875 L 10.457031 69.214844 Z M 7.5 9.5625 " fill-opacity="1" fill-rule="nonzero"/></g></g></g><g clip-path="url(#cdd9cc600c)"><path fill="#cb6ce6" d="M 36.285156 46.734375 L 36.285156 49.449219 L 23.882812 43.734375 L 23.882812 41.53125 L 36.285156 35.820312 L 36.285156 38.535156 L 26.90625 42.609375 L 26.90625 42.660156 Z M 43.652344 32.800781 L 22.910156 32.800781 C 21.929688 32.800781 21.136719 33.589844 21.136719 34.558594 L 21.136719 50.707031 C 21.136719 51.679688 21.929688 52.464844 22.910156 52.464844 L 37.894531 52.464844 L 43.652344 32.800781 " fill-opacity="1" fill-rule="nonzero"/></g><g clip-path="url(#1441e881ab)"><path fill="#0097b2" d="M 63.390625 33.5 L 50.988281 39.136719 L 50.988281 36.421875 L 60.574219 32.347656 L 60.574219 32.296875 L 50.988281 28.222656 L 50.988281 25.507812 L 63.390625 31.144531 Z M 49.414062 22.492188 L 43.652344 42.152344 L 64.363281 42.152344 C 65.34375 42.152344 66.136719 41.367188 66.136719 40.394531 L 66.136719 24.25 C 66.136719 23.277344 65.34375 22.492188 64.363281 22.492188 L 49.414062 22.492188 " fill-opacity="1" fill-rule="nonzero"/></g><g fill="#ffffff" fill-opacity="1"><g transform="translate(80.279599, 51.681436)"><g><path d="M 0.28125 -23.546875 L 0.28125 -29.4375 L 20.984375 -29.4375 L 20.984375 -23.546875 L 13.984375 -23.546875 L 13.984375 0 L 7.28125 0 L 7.28125 -23.546875 Z M 0.28125 -23.546875 "/></g></g></g><g fill="#ffffff" fill-opacity="1"><g transform="translate(101.547011, 51.681436)"><g><path d="M 24.765625 -29.4375 L 24.765625 -10.453125 C 24.765625 -6.835938 23.789062 -4.101562 21.84375 -2.25 C 19.894531 -0.394531 17.039062 0.53125 13.28125 0.53125 C 9.519531 0.53125 6.660156 -0.394531 4.703125 -2.25 C 2.753906 -4.101562 1.78125 -6.835938 1.78125 -10.453125 L 1.78125 -29.4375 L 8.5 -29.4375 L 8.5 -12.421875 C 8.5 -10.035156 8.867188 -8.378906 9.609375 -7.453125 C 10.359375 -6.523438 11.578125 -6.0625 13.265625 -6.0625 C 14.960938 -6.0625 16.1875 -6.523438 16.9375 -7.453125 C 17.6875 -8.378906 18.0625 -10.035156 18.0625 -12.421875 L 18.0625 -29.4375 Z M 24.765625 -29.4375 "/></g></g></g><g fill="#ffffff" fill-opacity="1"><g transform="translate(128.095586, 51.681436)"><g><path d="M 2.140625 -29.4375 L 11.28125 -29.4375 C 14.039062 -29.4375 16.238281 -28.847656 17.875 -27.671875 C 19.519531 -26.492188 20.34375 -24.585938 20.34375 -21.953125 C 20.34375 -18.992188 19.117188 -16.882812 16.671875 -15.625 C 20.859375 -14.894531 22.953125 -12.421875 22.953125 -8.203125 C 22.953125 -5.734375 22.09375 -3.75 20.375 -2.25 C 18.664062 -0.75 16.3125 0 13.3125 0 L 2.140625 0 Z M 8.84375 -17.921875 L 9.390625 -17.921875 C 10.890625 -17.921875 12.003906 -18.179688 12.734375 -18.703125 C 13.472656 -19.222656 13.84375 -20.078125 13.84375 -21.265625 C 13.84375 -23.265625 12.359375 -24.265625 9.390625 -24.265625 L 8.84375 -24.265625 Z M 8.84375 -5.171875 L 10.953125 -5.171875 C 14.234375 -5.171875 15.875 -6.265625 15.875 -8.453125 C 15.875 -9.765625 15.460938 -10.707031 14.640625 -11.28125 C 13.828125 -11.851562 12.597656 -12.140625 10.953125 -12.140625 L 8.84375 -12.140625 Z M 8.84375 -5.171875 "/></g></g></g><g fill="#ffffff" fill-opacity="1"><g transform="translate(151.860843, 51.681436)"><g><path d="M 18.984375 -29.4375 L 18.984375 -23.546875 L 8.84375 -23.546875 L 8.84375 -17.703125 L 18.5625 -17.703125 L 18.5625 -11.8125 L 8.84375 -11.8125 L 8.84375 -5.890625 L 18.984375 -5.890625 L 18.984375 0 L 2.140625 0 L 2.140625 -29.4375 Z M 18.984375 -29.4375 "/></g></g></g><g fill="#ffffff" fill-opacity="1"><g transform="translate(172.557309, 51.681436)"><g><path d="M 18.984375 -29.4375 L 18.984375 -23.546875 L 8.84375 -23.546875 L 8.84375 -17.703125 L 18.5625 -17.703125 L 18.5625 -11.8125 L 8.84375 -11.8125 L 8.84375 -5.890625 L 18.984375 -5.890625 L 18.984375 0 L 2.140625 0 L 2.140625 -29.4375 Z M 18.984375 -29.4375 "/></g></g></g><g fill="#ffffff" fill-opacity="1"><g transform="translate(193.253776, 51.681436)"><g/></g></g><g fill="#ffffff" fill-opacity="1"><g transform="translate(202.995386, 51.681436)"><g><path d="M 2.140625 -29.4375 L 10.671875 -29.4375 C 14.765625 -29.4375 18.257812 -28.039062 21.15625 -25.25 C 24.0625 -22.457031 25.515625 -18.953125 25.515625 -14.734375 C 25.515625 -10.503906 24.066406 -6.988281 21.171875 -4.1875 C 18.285156 -1.394531 14.785156 0 10.671875 0 L 2.140625 0 Z M 8.84375 -6 L 9.890625 -6 C 12.335938 -6 14.335938 -6.820312 15.890625 -8.46875 C 17.453125 -10.125 18.242188 -12.203125 18.265625 -14.703125 C 18.265625 -17.203125 17.484375 -19.285156 15.921875 -20.953125 C 14.367188 -22.617188 12.359375 -23.453125 9.890625 -23.453125 L 8.84375 -23.453125 Z M 8.84375 -6 "/></g></g></g><g fill="#ffffff" fill-opacity="1"><g transform="translate(229.329864, 51.681436)"><g><path d="M 0.828125 -14.734375 C 0.828125 -18.992188 2.273438 -22.597656 5.171875 -25.546875 C 8.078125 -28.503906 11.578125 -29.984375 15.671875 -29.984375 C 19.785156 -29.984375 23.28125 -28.507812 26.15625 -25.5625 C 29.039062 -22.625 30.484375 -19.015625 30.484375 -14.734375 C 30.484375 -10.429688 29.066406 -6.8125 26.234375 -3.875 C 23.398438 -0.9375 19.878906 0.53125 15.671875 0.53125 C 11.359375 0.53125 7.804688 -0.921875 5.015625 -3.828125 C 2.222656 -6.742188 0.828125 -10.378906 0.828125 -14.734375 Z M 8.0625 -14.734375 C 8.0625 -13.191406 8.300781 -11.78125 8.78125 -10.5 C 9.257812 -9.226562 10.09375 -8.148438 11.28125 -7.265625 C 12.46875 -6.390625 13.929688 -5.953125 15.671875 -5.953125 C 18.160156 -5.953125 20.039062 -6.804688 21.3125 -8.515625 C 22.59375 -10.234375 23.234375 -12.304688 23.234375 -14.734375 C 23.234375 -17.140625 22.582031 -19.203125 21.28125 -20.921875 C 19.988281 -22.648438 18.117188 -23.515625 15.671875 -23.515625 C 13.242188 -23.515625 11.367188 -22.648438 10.046875 -20.921875 C 8.722656 -19.203125 8.0625 -17.140625 8.0625 -14.734375 Z M 8.0625 -14.734375 "/></g></g></g><g fill="#ffffff" fill-opacity="1"><g transform="translate(260.62436, 51.681436)"><g><path d="M 0.28125 -23.546875 L 0.28125 -29.4375 L 20.984375 -29.4375 L 20.984375 -23.546875 L 13.984375 -23.546875 L 13.984375 0 L 7.28125 0 L 7.28125 -23.546875 Z M 0.28125 -23.546875 "/></g></g></g><g fill="#ffffff" fill-opacity="1"><g transform="translate(281.891772, 51.681436)"><g/></g></g><g fill="#ffffff" fill-opacity="1"><g transform="translate(291.633372, 51.681436)"><g><path d="M 2.140625 -29.4375 L 10.671875 -29.4375 C 14.765625 -29.4375 18.257812 -28.039062 21.15625 -25.25 C 24.0625 -22.457031 25.515625 -18.953125 25.515625 -14.734375 C 25.515625 -10.503906 24.066406 -6.988281 21.171875 -4.1875 C 18.285156 -1.394531 14.785156 0 10.671875 0 L 2.140625 0 Z M 8.84375 -6 L 9.890625 -6 C 12.335938 -6 14.335938 -6.820312 15.890625 -8.46875 C 17.453125 -10.125 18.242188 -12.203125 18.265625 -14.703125 C 18.265625 -17.203125 17.484375 -19.285156 15.921875 -20.953125 C 14.367188 -22.617188 12.359375 -23.453125 9.890625 -23.453125 L 8.84375 -23.453125 Z M 8.84375 -6 "/></g></g></g><g fill="#ffffff" fill-opacity="1"><g transform="translate(317.96785, 51.681436)"><g><path d="M 18.984375 -29.4375 L 18.984375 -23.546875 L 8.84375 -23.546875 L 8.84375 -17.703125 L 18.5625 -17.703125 L 18.5625 -11.8125 L 8.84375 -11.8125 L 8.84375 -5.890625 L 18.984375 -5.890625 L 18.984375 0 L 2.140625 0 L 2.140625 -29.4375 Z M 18.984375 -29.4375 "/></g></g></g><g fill="#ffffff" fill-opacity="1"><g transform="translate(338.664327, 51.681436)"><g><path d="M 11.34375 0 L -1 -29.4375 L 6.5625 -29.4375 L 13.984375 -10.09375 L 21.40625 -29.4375 L 28.984375 -29.4375 L 16.625 0 Z M 11.34375 0 "/></g></g></g></svg>